{"title":"Bullett Raja Title Video Song - Saif Ali Khan HD 1080p {GreatPal","uid":9220598,"size":59992855,"categoryP":"video","categoryS":"music_videos","magnet":"?xt=urn:btih:35b72aa5b946f6f673e7a5a33e918f786cd88807&amp;dn=Bullett+Raja+Title+Video+Song+-+Saif+Ali+Khan+HD+1080p+%7BGreatPal&amp;tr=udp%3A%2F%2Ftracker.openbittorrent.com%3A80&amp;tr=udp%3A%2F%2Fopen.demonii.com%3A1337&amp;tr=udp%3A%2F%2Ftracker.coppersurfer.tk%3A6969&amp;tr=udp%3A%2F%2Fexodus.desync.com%3A6969","seeders":0,"leechers":1,"uploader":"Palash995","files":1,"time":1384926375,"description":"Bullett Raja Title Video Song - Saif Ali Khan HD 1080p {GreatPalash}\n &lt;a href=&quot;\nhttp://www.mp3z.in/wp-content/uploads/2013/11/Bullet-Raja-Front.jpg&quot; rel=&quot;nofollow&quot; target=&quot;_NEW&quot;&gt;\nhttp://www.mp3z.in/wp-content/uploads/2013/11/Bullet-Raja-Front.jpg&lt;/a&gt;\n\nRaja Ji &quot;Aayenge Toh Garmi Machaenge&quot; - Presenting &quot;Bullett Raja Title Song&quot; in voice of Wajid. The song lyrics are penned by Kausar Munir. Bullett Raja starring Saif Ali Khan, Sonakshi Sinha, Jimmy Shergill, Vidyut Jamwal &amp; Others and music is composed by Sajid, Wajid &amp; RDB and is set to release on 29 November 2013\n\nSong: BULLETT RAJA\nSinger: WAJID, BACK UP VOCALS BY KEERTHI SAGATHIA\nMusic: SAJID, WAJID\nLyrics: KAUSAR MUNIR\n\nScreenshots:-\n\n\n\n\n\nMedia Info:-\n\nGeneral\nComplete name                            : Bullett Raja Title Video Song - Saif Ali Khan HD 1080p {DAKU RG} {GreatPalash}.mp4\nFormat                                   : MPEG-4\nFormat profile                           : Base Media\nCodec ID                                 : isom\nFile size                                : 57.2 MiB\nDuration                                 : 1mn 53s\nOverall bit rate mode                    : Variable\nOverall bit rate                         : 4 243 Kbps\nWriting application                      : Lavf53.31.100\n\nVideo\nID                                       : 1\nFormat                                   : AVC\nFormat/Info                              : Advanced Video Codec\nFormat profile                           : &lt;a class=&quot;__cf_email__&quot; href=&quot;/cdn-cgi/l/email-protection&quot; data-cfemail=&quot;276f4e404f676b130916&quot;&gt;[email&amp;#160;protected]&lt;/a&gt;&lt;script cf-hash='f9e31' type=&quot;text/javascript&quot;&gt;\n/* &lt;![CDATA[ */!function(){try{var t=&quot;currentScript&quot;in document?document.currentScript:function(){for(var t=document.getElementsByTagName(&quot;script&quot;),e=t.length;e--;)if(t[e].getAttribute(&quot;cf-hash&quot;))return t[e]}();if(t&amp;&amp;t.previousSibling){var e,r,n,i,c=t.previousSibling,a=c.getAttribute(&quot;data-cfemail&quot;);if(a){for(e=&quot;&quot;,r=parseInt(a.substr(0,2),16),n=2;a.length-n;n+=2)i=parseInt(a.substr(n,2),16)^r,e+=String.fromCharCode(i);e=document.createTextNode(e),c.parentNode.replaceChild(e,c)}}}catch(u){}}();/* ]]&gt; */&lt;/script&gt;\nFormat settings, CABAC                   : Yes\nFormat settings, ReFrames                : 3 frames\nCodec ID                                 : avc1\nCodec ID/Info                            : Advanced Video Coding\nDuration                                 : 1mn 53s\nBit rate mode                            : Variable\nBit rate                                 : 3 982 Kbps\nMaximum bit rate                         : 19.2 Mbps\nWidth                                    : 1 920 pixels\nHeight                                   : 1 080 pixels\nDisplay aspect ratio                     : 16:9\nFrame rate mode                          : Constant\nFrame rate                               : 25.000 fps\nStandard                                 : PAL\nColor space                              : YUV\nChroma subsampling                       : 4:2:0\nBit depth                                : 8 bits\nScan type                                : Progressive\nBits/(Pixel*Frame)                       : 0.077\nStream size                              : 53.7 MiB (94%)\nColor primaries                          : BT.709\nTransfer characteristics                 : BT.709\nMatrix coefficients                      : BT.709\n\nAudio\nID                                       : 2\nFormat                                   : AAC\nFormat/Info                              : Advanced Audio Codec\nFormat profile                           : LC\nCodec ID                                 : 40\nDuration                                 : 1mn 53s\nBit rate mode                            : Constant\nBit rate                                 : 253 Kbps\nChannel(s)                               : 2 channels\nChannel positions                        : Front: L R\nSampling rate                            : 44.1 KHz\nCompression mode                         : Lossy\nStream size                              : 3.42 MiB (6%)\n &lt;a href=&quot;\nhttp://imageshack.us/a/img89/4822/zka.gif&quot; rel=&quot;nofollow&quot; target=&quot;_NEW&quot;&gt;\nhttp://imageshack.us/a/img89/4822/zka.gif&lt;/a&gt;\n &lt;a href=&quot;\nhttp://imageshack.us/a/img200/185/tj8.gif&quot; rel=&quot;nofollow&quot; target=&quot;_NEW&quot;&gt;\nhttp://imageshack.us/a/img200/185/tj8.gif&lt;/a&gt;\n &lt;a href=&quot;\nhttp://imageshack.us/a/img593/9603/ua8.gif&quot; rel=&quot;nofollow&quot; target=&quot;_NEW&quot;&gt;\nhttp://imageshack.us/a/img593/9603/ua8.gif&lt;/a&gt;\n &lt;a href=&quot;\nhttp://imageshack.us/a/img707/5608/ysmp.png&quot; rel=&quot;nofollow&quot; target=&quot;_NEW&quot;&gt;\nhttp://imageshack.us/a/img707/5608/ysmp.png&lt;/a&gt;\n\n","torrent":{"xt":"urn:btih:35b72aa5b946f6f673e7a5a33e918f786cd88807","amp;dn":"Bullett+Raja+Title+Video+Song+-+Saif+Ali+Khan+HD+1080p+%7BGreatPal","amp;tr":["udp%3A%2F%2Ftracker.openbittorrent.com%3A80","udp%3A%2F%2Fopen.demonii.com%3A1337","udp%3A%2F%2Ftracker.coppersurfer.tk%3A6969","udp%3A%2F%2Fexodus.desync.com%3A6969"],"infoHash":"35b72aa5b946f6f673e7a5a33e918f786cd88807","infoHashBuffer":{"type":"Buffer","data":[53,183,42,165,185,70,246,246,115,231,165,163,62,145,143,120,108,216,136,7]},"announce":[],"urlList":[]}}